<svg version="1.1" id="Layer_1" xmlns="http://www.w3.org/2000/svg" xmlns:xlink="http://www.w3.org/1999/xlink" x="0px" y="0px" width="50px" height="50px" viewBox="0 0 50 50" enable-background="new 0 0 50 50" xml:space="preserve">
<g>
	<g>
		<path fill="#ffffff" d="M43.075,6.938c-0.003-0.002-0.004-0.005-0.006-0.007c-0.031-0.031-0.067-0.054-0.1-0.081
			C42.388,6.306,41.64,6,40.833,6H21.913c-0.874,0-1.583,0.709-1.583,1.583s0.709,1.583,1.583,1.583h16.682L6.464,41.297
			c-0.619,0.618-0.619,1.62,0,2.239C6.773,43.845,7.178,44,7.583,44c0.405,0,0.811-0.155,1.119-0.464l32.131-32.13v16.682
			c0,0.874,0.709,1.583,1.583,1.583c0.874,0,1.583-0.709,1.583-1.583V9.167c0-0.857-0.336-1.656-0.917-2.221
			C43.081,6.942,43.078,6.941,43.075,6.938L43.075,6.938z" id="id_103"></path>
	</g>
</g>
</svg>