<svg viewBox="0 0 64 64" xmlns="http://www.w3.org/2000/svg"><g data-name="Layer 32"><path d="M51.29 35.86h-3.73a.5.5 0 0 0-.5.5v19.41H8.23V16.94h19.41a.5.5 0 0 0 .5-.5v-3.73a.5.5 0 0 0-.5-.5H4a.5.5 0 0 0-.5.5V60a.5.5 0 0 0 .5.5h47.29a.5.5 0 0 0 .5-.5V36.36a.5.5 0 0 0-.5-.5Z" fill="#ffffff" class="fill-000000"></path><path d="M60 3.5H37.81a.5.5 0 0 0-.5.5v3.73a.5.5 0 0 0 .5.5h14.62L26 34.68a.5.5 0 0 0-.14.35.52.52 0 0 0 .14.36L28.61 38a.52.52 0 0 0 .36.14.5.5 0 0 0 .35-.14l26.45-26.43v14.62a.5.5 0 0 0 .5.5H60a.5.5 0 0 0 .5-.5V4a.5.5 0 0 0-.5-.5Z" fill="#ffffff" class="fill-000000"></path></g></svg>