<svg viewBox="0 0 32 32" xml:space="preserve" xmlns="http://www.w3.org/2000/svg" enable-background="new 0 0 32 32"><path d="M31.49 1.908C31.463 1.133 30.77.498 30 .5h-7.986c-1.969.034-1.974 2.965 0 3h4.365l-7.83 7.83a1.5 1.5 0 1 0 2.122 2.12L28.5 5.621v4.365c.032 1.968 2.967 1.974 3 0V2c0-.032-.007-.061-.01-.092z" fill="#ffffff" class="fill-000000"></path><path d="M25.802 11.918a1.5 1.5 0 0 0-1.5 1.5v13.014a2.07 2.07 0 0 1-2.069 2.068H5.568A2.07 2.07 0 0 1 3.5 26.432V9.767a2.07 2.07 0 0 1 2.068-2.069h13.014a1.5 1.5 0 0 0 0-3H5.568A5.074 5.074 0 0 0 .5 9.767v16.665A5.074 5.074 0 0 0 5.568 31.5h16.665a5.074 5.074 0 0 0 5.069-5.068V13.418a1.5 1.5 0 0 0-1.5-1.5z" fill="#ffffff" class="fill-000000"></path></svg>