<svg version="1.1" id="Layer_1" xmlns="http://www.w3.org/2000/svg" xmlns:xlink="http://www.w3.org/1999/xlink" x="0px" y="0px" viewBox="0 0 512 512" style="enable-background:new 0 0 512 512;" xml:space="preserve">
<style type="text/css">
	.st0{fill:#007BBC;}
</style>
<g>
	<g>
		<g>
			<g>
				<path class="st0" d="M508.0844,310.2676v178.232c0,4.404-3.5696,7.9735-7.9736,7.9735h-92.0097
					c-4.404,0-7.9736-3.5696-7.9736-7.9735V322.7469c0-43.621-15.5867-73.4092-54.6751-73.4092
					c-29.8283,0-47.5493,20.0557-55.3744,39.474c-2.842,6.9406-3.5746,16.5779-3.5746,26.3104v173.3691
					c0,4.404-3.5696,7.9736-7.9735,7.9736h-91.9797c-4.419,0-7.9953-3.5562-7.9736-7.9752
					c0.2036-44.1366,1.1348-258.3081,0.1902-308.646c-0.0834-4.4591,3.5112-8.0704,7.9702-8.0704h91.8011
					c4.404,0,7.9736,3.5696,7.9736,7.9736v38.0388c-0.2186,0.3621-0.524,0.7159-0.7176,1.063h0.7176v-1.063
					c14.3467-22.0767,39.9329-53.6355,97.2965-53.6355C454.8344,164.1501,508.0844,210.5564,508.0844,310.2676L508.0844,310.2676z
					 M18.8968,496.4731h91.978c4.404,0,7.9736-3.5696,7.9736-7.9735V179.7468c0-4.404-3.5696-7.9736-7.9736-7.9736h-91.978
					c-4.404,0-7.9736,3.5696-7.9736,7.9736v308.7528C10.9232,492.9036,14.4928,496.4731,18.8968,496.4731z" id="id_102" style="fill: rgb(15, 23, 42);"></path>
			</g>
		</g>
	</g>
	<g>
		<path class="st0" d="M119.4407,72.6861c0,31.9143-25.8715,57.7875-57.7858,57.7875S3.8675,104.6004,3.8675,72.6861
			s25.8732-57.7858,57.7875-57.7858S119.4407,40.7719,119.4407,72.6861z" id="id_103" style="fill: rgb(15, 23, 42);"></path>
	</g>
</g>
</svg>