<svg xmlns="http://www.w3.org/2000/svg" xml:space="preserve" width="1.70666in" height="1.70666in" version="1.1" style="shape-rendering:geometricPrecision; text-rendering:geometricPrecision; image-rendering:optimizeQuality; fill-rule:evenodd; clip-rule:evenodd" viewBox="0 0 1706.66 1706.66" xmlns:xlink="http://www.w3.org/1999/xlink" xmlns:xodm="http://www.corel.com/coreldraw/odm/2003">
 <defs>
  <style type="text/css">
   
    .fil0 {fill:black}
   
  </style>
 </defs>
 <g id="Layer_x0020_1">
  <metadata id="CorelCorpID_0Corel-Layer"></metadata>
  <path class="fil0" d="M1155.1 1050.89c-12,0 -154.83,-86.33 -176.95,-99.07 -9.53,-5.48 -12.87,-17.74 -7.32,-27.31l488.91 -846.81c32,-55.43 103.54,-74.61 159,-42.6 55.58,32.1 74.7,103.42 42.61,159l-488.91 846.8c-3.7,6.41 -10.42,10 -17.34,10zm-139.64 -123.73l132.33 76.41 478.92 -829.49c29.11,-50.48 -7.29,-114.52 -65.91,-114.52 -27.4,0 -52.86,14.61 -66.43,38.13l-478.91 829.48z" id="id_101" style="fill: rgb(157, 118, 255);"></path>
  <path class="fil0" d="M969.85 1178.97c-11.51,0 -20.89,-9.97 -19.94,-21.63l18.29 -224.5c2.11,-26.04 42.04,-23.18 39.87,3.26l-14.86 182.4 150.53 -104.07c21.69,-14.98 44.4,17.94 22.76,32.9l-185.27 128.1c-3.43,2.33 -7.4,3.52 -11.38,3.52z" id="id_102" style="fill: rgb(157, 118, 255);"></path>
  <path class="fil0" d="M1628.72 230.57c-11.94,0 -154.92,-86.37 -176.94,-99.09 -22.81,-13.17 -2.8,-47.77 20,-34.63l166.96 96.4c17.71,10.23 10.27,37.32 -10.02,37.32z" id="id_103" style="fill: rgb(157, 118, 255);"></path>
  <path class="fil0" d="M1581.04 313.15c-11.97,0 -154.88,-86.35 -176.95,-99.09 -22.82,-13.16 -2.79,-47.78 20,-34.63l166.97 96.4c17.69,10.2 10.31,37.32 -10.02,37.32z" id="id_104" style="fill: rgb(157, 118, 255);"></path>
  <path class="fil0" d="M1134.05 1706.64l-1011.11 0c-51.39,0 -93.2,-41.82 -93.2,-93.2l0 -1520.22c0,-51.39 41.81,-93.2 93.2,-93.2l1011.11 0.01c51.39,0 93.2,41.8 93.2,93.19l0 461.8c0,3.51 -0.93,6.96 -2.68,10l-209.09 362.13 132.33 76.41 42.11 -72.94c10.19,-17.67 37.31,-10.33 37.31,10l0 672.83c0.02,51.4 -41.8,93.2 -93.19,93.2zm-1011.11 -1666.63c-29.33,0 -53.21,23.87 -53.21,53.21l0 1520.24c0,29.33 23.87,53.2 53.21,53.2l1011.11 -0c29.33,0 53.2,-23.87 53.2,-53.2l0 -598.19c-9.89,17.14 -20.48,45.45 -42.09,32.94l-166.99 -96.4c-9.53,-5.49 -12.87,-17.74 -7.31,-27.32l216.4 -374.84 -0 -456.43c0,-29.33 -23.87,-53.21 -53.2,-53.21l-1011.11 0z" id="id_105" style="fill: rgb(157, 118, 255);"></path>
  <path class="fil0" d="M392.64 911.74l-235.4 0c-25.54,0 -46.3,-20.78 -46.3,-46.32l0 -190.07c0,-25.52 20.78,-46.3 46.3,-46.3l235.39 -0c25.53,0 46.3,20.78 46.3,46.3l0 190.07c0.01,25.54 -20.76,46.32 -46.29,46.32zm-235.4 -242.7c-3.43,0 -6.32,2.89 -6.32,6.3l0 190.07c0,3.42 2.89,6.31 6.32,6.31l235.39 0c3.42,0 6.3,-2.89 6.3,-6.31l0 -190.07c0,-3.42 -2.89,-6.3 -6.3,-6.3l-235.39 -0z" id="id_106" style="fill: rgb(157, 118, 255);"></path>
  <path class="fil0" d="M875.09 933.65l-192.99 0c-25.54,0 -46.3,-20.78 -46.3,-46.32l0 -143.28c0,-25.53 20.78,-46.3 46.3,-46.3l193 -0c25.54,0 46.32,20.78 46.32,46.3l0 143.28c-0.02,25.55 -20.79,46.32 -46.33,46.32zm-192.99 -195.9c-3.43,0 -6.32,2.89 -6.32,6.3l0 143.28c0,3.42 2.89,6.3 6.32,6.3l193 0c3.42,0 6.3,-2.89 6.3,-6.3l0 -143.28c0,-3.42 -2.89,-6.3 -6.3,-6.3l-193 -0z" id="id_107" style="fill: rgb(157, 118, 255);"></path>
  <path class="fil0" d="M875.09 1246.53l-192.99 0c-25.54,0 -46.3,-20.78 -46.3,-46.32l0 -143.29c0,-25.53 20.78,-46.3 46.3,-46.3l193 -0c25.54,0 46.32,20.78 46.32,46.3l0 143.27c-0.02,25.55 -20.79,46.34 -46.33,46.34zm-192.99 -195.91c-3.43,0 -6.32,2.88 -6.32,6.3l0 143.28c0,3.42 2.89,6.3 6.32,6.3l193 0c3.42,0 6.3,-2.89 6.3,-6.3l0 -143.28c0,-3.42 -2.89,-6.3 -6.3,-6.3l-193 0z" id="id_108" style="fill: rgb(157, 118, 255);"></path>
  <path class="fil0" d="M875.09 1559.39l-192.99 0c-25.54,0 -46.3,-20.78 -46.3,-46.32l0 -143.28c0,-25.53 20.78,-46.3 46.3,-46.3l193 -0.01c25.54,0 46.32,20.78 46.32,46.31l0 143.27c-0.02,25.54 -20.79,46.33 -46.33,46.33zm-192.99 -195.91c-3.43,0 -6.32,2.88 -6.32,6.3l0 143.28c0,3.42 2.89,6.3 6.32,6.3l193 0c3.42,0 6.3,-2.89 6.3,-6.3l0 -143.28c0,-3.42 -2.89,-6.3 -6.3,-6.3l-193 0z" id="id_109" style="fill: rgb(157, 118, 255);"></path>
  <path class="fil0" d="M655.79 1148.6l-380.85 0c-11.04,0 -20,-8.97 -20,-20l0 -236.86c0,-26.33 40,-26.32 40,0l0 216.84 360.85 0c26.33,0 26.33,40.02 0,40.02z" id="id_110" style="fill: rgb(157, 118, 255);"></path>
  <path class="fil0" d="M550.2 1148.6c-11.04,0 -20,-8.97 -20,-20l0 -312.89c0,-11.04 8.96,-20 20,-20l105.58 0c26.33,0 26.33,40 0,40l-85.58 0 0 292.88c0,11.04 -8.94,20.01 -20,20.01z" id="id_111" style="fill: rgb(157, 118, 255);"></path>
  <path class="fil0" d="M655.79 1461.46l-105.58 0c-11.04,0 -20,-8.97 -20,-20l0 -312.87c0,-26.33 40,-26.32 40,0l0 292.87 85.58 0c26.32,0 26.34,40 0,40z" id="id_112" style="fill: rgb(157, 118, 255);"></path>
  <path class="fil0" d="M957.98 286.59l-726.78 0c-26.33,0 -26.33,-40 0,-40l726.78 0c26.33,0 26.33,40 0,40z" id="id_113" style="fill: rgb(157, 118, 255);"></path>
  <path class="fil0" d="M957.98 493.64l-726.78 0c-26.33,0 -26.33,-40 0,-40l726.78 0c26.33,0 26.33,40 0,40z" id="id_114" style="fill: rgb(157, 118, 255);"></path>
 </g>
</svg>